# xmcd
#
# Track frame offsets: 
#        150
#        15187
#        29372
#        42112
#        54483
#        65718
#        77465
#        92599
#        104652
#        118043
#        131952
#        147724
#        158715
#        172388
#        182730
#        202089
#
# Disc length: 2924 seconds
#
# Revision: 0
# Processed by: cddbd v1.5.2PL0 Copyright (c) Steve Scherf et al.
# Submitted via: ExactAudioCopy v0.95b4
#
DISCID=e70b6a10
DTITLE=Django Reinhardt - Dinette
DYEAR=1900
DGENRE=Blues
TTITLE0=Stockholm
TTITLE1=It Had To Be You
TTITLE2=I Can't Give You Anything But Love, Baby
TTITLE3=Place de Broukere
TTITLE4=St. Lous Blues
TTITLE5=Belleville
TTITLE6=Melodie au crepuscule
TTITLE7=Symphonie
TTITLE8=Dinette
TTITLE9=Swing de Paris
TTITLE10=September Song
TTITLE11=Douce ambiance
TTITLE12=Folie A Amphion
TTITLE13=Peche a la mouche
TTITLE14=Artillerie lourde
TTITLE15=Manoir de mes reves
EXTD=
EXTT0=
EXTT1=
EXTT2=
EXTT3=
EXTT4=
EXTT5=
EXTT6=
EXTT7=
EXTT8=
EXTT9=
EXTT10=
EXTT11=
EXTT12=
EXTT13=
EXTT14=
EXTT15=
PLAYORDER=
